<svg style="" width="26.000000" height="26.000000" version="1.1" xmlns="http://www.w3.org/2000/svg">
<path d="M3.812500 3.812500 C6.354179 1.270821 9.416649 -0.000000 13.000000 -0.000000 C16.583351 -0.000000 19.645821 1.270821 22.187500 3.812500 C24.729179 6.354179 26.000000 9.416649 26.000000 13.000000 C26.000000 16.583351 24.729179 19.645821 22.187500 22.187500 C19.645821 24.729179 16.583351 26.000000 13.000000 26.000000 C9.416649 26.000000 6.354179 24.729179 3.812500 22.187500 C1.270821 19.645821 0.000000 16.583351 0.000000 13.000000 C0.000000 9.416649 1.270821 6.354179 3.812500 3.812500 Z M14.500000 19.500000 L14.500000 17.000000 L11.500000 17.000000 L11.500000 19.500000 Z M14.500000 14.000000 L14.500000 6.000000 L11.500000 6.000000 L11.500000 14.000000 Z M26.000000 25.000000" style="fill:#de1515"/>
</svg>